<?xml version="1.0" encoding="UTF-8"?>
<!--Generator: scripts/make-drink-symbols.py-->
<!DOCTYPE svg PUBLIC "-//W3C//DTD SVG 1.1//EN" "http://www.w3.org/Graphics/SVG/1.1/DTD/svg11.dtd">
<svg version="1.1" xmlns="http://www.w3.org/2000/svg" xmlns:xlink="http://www.w3.org/1999/xlink" viewBox="0 0 3300 2200">
 <!--glyph: "tally.tab.trends", point size: 100.000000, template writer version: "8"-->
 <g id="Notes">
  <rect height="2200" opacity="0" width="3300" x="0" y="0"/>
  <text style="stroke:none;fill:black;font-family:sans-serif;font-size:13;" transform="matrix(1 0 0 1 263 292)">Weight/Scale Variations</text>
  <text style="stroke:none;fill:black;font-family:sans-serif;font-size:13;text-anchor:middle;" transform="matrix(1 0 0 1 559.0 322)">Ultralight</text>
  <text style="stroke:none;fill:black;font-family:sans-serif;font-size:13;text-anchor:middle;" transform="matrix(1 0 0 1 856.0 322)">Thin</text>
  <text style="stroke:none;fill:black;font-family:sans-serif;font-size:13;text-anchor:middle;" transform="matrix(1 0 0 1 1153.0 322)">Light</text>
  <text style="stroke:none;fill:black;font-family:sans-serif;font-size:13;text-anchor:middle;" transform="matrix(1 0 0 1 1450.0 322)">Regular</text>
  <text style="stroke:none;fill:black;font-family:sans-serif;font-size:13;text-anchor:middle;" transform="matrix(1 0 0 1 1747.0 322)">Medium</text>
  <text style="stroke:none;fill:black;font-family:sans-serif;font-size:13;text-anchor:middle;" transform="matrix(1 0 0 1 2044.0 322)">Semibold</text>
  <text style="stroke:none;fill:black;font-family:sans-serif;font-size:13;text-anchor:middle;" transform="matrix(1 0 0 1 2341.0 322)">Bold</text>
  <text style="stroke:none;fill:black;font-family:sans-serif;font-size:13;text-anchor:middle;" transform="matrix(1 0 0 1 2638.0 322)">Heavy</text>
  <text style="stroke:none;fill:black;font-family:sans-serif;font-size:13;text-anchor:middle;" transform="matrix(1 0 0 1 2935.0 322)">Black</text>
  <text style="stroke:none;fill:black;font-family:sans-serif;font-size:13;" transform="matrix(1 0 0 1 263 1953)">Design Variations</text>
  <text style="stroke:none;fill:black;font-family:sans-serif;font-size:13;" transform="matrix(1 0 0 1 263 1971)">Symbols are supported in up to nine weights and three scales.</text>
  <text style="stroke:none;fill:black;font-family:sans-serif;font-size:13;" transform="matrix(1 0 0 1 263 1989)">For optimal layout with text and other symbols, vertically align</text>
  <text style="stroke:none;fill:black;font-family:sans-serif;font-size:13;" transform="matrix(1 0 0 1 263 2007)">symbols with the center of the capital letter height.</text>
  <text id="template-version" style="stroke:none;fill:black;font-family:sans-serif;font-size:13;text-anchor:end;" transform="matrix(1 0 0 1 3036 258)">Template v.3.0</text>
  <text id="descriptive-name" style="stroke:none;fill:black;font-family:sans-serif;font-size:13;text-anchor:end;" transform="matrix(1 0 0 1 3036 1953)">tally.tab.trends</text>
  <text style="stroke:none;fill:black;font-family:sans-serif;font-size:13;" transform="matrix(1 0 0 1 263 2050)">Generated from scripts/make-drink-symbols.py</text>
 </g>
 <g id="Guides">
  <g id="H-reference" style="fill:#27AAE1;stroke:none;">
   <path d="M263 625.541 L274.39 625.541 L274.39 656.864 L307.137 656.864 L307.137 625.541 L318.527 625.541 L318.527 696.729 L307.137 696.729 L307.137 666.118 L274.39 666.118 L274.39 696.729 L263 696.729 Z"/>
   <path d="M263 1126.28 L274.382 1126.28 L274.382 1157.582 L307.107 1157.582 L307.107 1126.28 L318.489 1126.28 L318.489 1197.42 L307.107 1197.42 L307.107 1166.83 L274.382 1166.83 L274.382 1197.42 L263 1197.42 Z"/>
   <path d="M263 1607.56 L274.382 1607.56 L274.382 1638.862 L307.107 1638.862 L307.107 1607.56 L318.489 1607.56 L318.489 1678.7 L307.107 1678.7 L307.107 1648.11 L274.382 1648.11 L274.382 1678.7 L263 1678.7 Z"/>
  </g>
  <line id="Capline-S" stroke="#27AAE1" stroke-width="0.5" x1="263" x2="3036" y1="625.541" y2="625.541"/>
  <line id="Baseline-S" stroke="#27AAE1" stroke-width="0.5" x1="263" x2="3036" y1="696.729" y2="696.729"/>
  <line id="Capline-M" stroke="#27AAE1" stroke-width="0.5" x1="263" x2="3036" y1="1126.28" y2="1126.28"/>
  <line id="Baseline-M" stroke="#27AAE1" stroke-width="0.5" x1="263" x2="3036" y1="1197.42" y2="1197.42"/>
  <line id="Capline-L" stroke="#27AAE1" stroke-width="0.5" x1="263" x2="3036" y1="1607.56" y2="1607.56"/>
  <line id="Baseline-L" stroke="#27AAE1" stroke-width="0.5" x1="263" x2="3036" y1="1678.7" y2="1678.7"/>
  <line id="left-margin" stroke="#00AEEF" stroke-width="0.5" x1="1405" x2="1405" y1="1026.28" y2="1257.42"/>
  <line id="right-margin" stroke="#00AEEF" stroke-width="0.5" x1="1495" x2="1495" y1="1026.28" y2="1257.42"/>
 </g>
 <g id="Symbols">
  <g id="Ultralight-L">
   <path d="M510.625 1643.13 L523.525 1643.13 A9.675 9.675 0 0 1 533.2 1652.805 L533.2 1691.505 A9.675 9.675 0 0 1 523.525 1701.18 L510.625 1701.18 A9.675 9.675 0 0 1 500.95 1691.505 L500.95 1652.805 A9.675 9.675 0 0 1 510.625 1643.13 Z M552.55 1610.88 L565.45 1610.88 A9.675 9.675 0 0 1 575.125 1620.555 L575.125 1691.505 A9.675 9.675 0 0 1 565.45 1701.18 L552.55 1701.18 A9.675 9.675 0 0 1 542.875 1691.505 L542.875 1620.555 A9.675 9.675 0 0 1 552.55 1610.88 Z M594.475 1585.08 L607.375 1585.08 A9.675 9.675 0 0 1 617.05 1594.755 L617.05 1691.505 A9.675 9.675 0 0 1 607.375 1701.18 L594.475 1701.18 A9.675 9.675 0 0 1 584.8 1691.505 L584.8 1594.755 A9.675 9.675 0 0 1 594.475 1585.08 Z"/>
  </g>
  <g id="Thin-L">
   <path d="M807.625 1643.13 L820.525 1643.13 A9.675 9.675 0 0 1 830.2 1652.805 L830.2 1691.505 A9.675 9.675 0 0 1 820.525 1701.18 L807.625 1701.18 A9.675 9.675 0 0 1 797.95 1691.505 L797.95 1652.805 A9.675 9.675 0 0 1 807.625 1643.13 Z M849.55 1610.88 L862.45 1610.88 A9.675 9.675 0 0 1 872.125 1620.555 L872.125 1691.505 A9.675 9.675 0 0 1 862.45 1701.18 L849.55 1701.18 A9.675 9.675 0 0 1 839.875 1691.505 L839.875 1620.555 A9.675 9.675 0 0 1 849.55 1610.88 Z M891.475 1585.08 L904.375 1585.08 A9.675 9.675 0 0 1 914.05 1594.755 L914.05 1691.505 A9.675 9.675 0 0 1 904.375 1701.18 L891.475 1701.18 A9.675 9.675 0 0 1 881.8 1691.505 L881.8 1594.755 A9.675 9.675 0 0 1 891.475 1585.08 Z"/>
  </g>
  <g id="Light-L">
   <path d="M1104.625 1643.13 L1117.525 1643.13 A9.675 9.675 0 0 1 1127.2 1652.805 L1127.2 1691.505 A9.675 9.675 0 0 1 1117.525 1701.18 L1104.625 1701.18 A9.675 9.675 0 0 1 1094.95 1691.505 L1094.95 1652.805 A9.675 9.675 0 0 1 1104.625 1643.13 Z M1146.55 1610.88 L1159.45 1610.88 A9.675 9.675 0 0 1 1169.125 1620.555 L1169.125 1691.505 A9.675 9.675 0 0 1 1159.45 1701.18 L1146.55 1701.18 A9.675 9.675 0 0 1 1136.875 1691.505 L1136.875 1620.555 A9.675 9.675 0 0 1 1146.55 1610.88 Z M1188.475 1585.08 L1201.375 1585.08 A9.675 9.675 0 0 1 1211.05 1594.755 L1211.05 1691.505 A9.675 9.675 0 0 1 1201.375 1701.18 L1188.475 1701.18 A9.675 9.675 0 0 1 1178.8 1691.505 L1178.8 1594.755 A9.675 9.675 0 0 1 1188.475 1585.08 Z"/>
  </g>
  <g id="Regular-L">
   <path d="M1401.625 1643.13 L1414.525 1643.13 A9.675 9.675 0 0 1 1424.2 1652.805 L1424.2 1691.505 A9.675 9.675 0 0 1 1414.525 1701.18 L1401.625 1701.18 A9.675 9.675 0 0 1 1391.95 1691.505 L1391.95 1652.805 A9.675 9.675 0 0 1 1401.625 1643.13 Z M1443.55 1610.88 L1456.45 1610.88 A9.675 9.675 0 0 1 1466.125 1620.555 L1466.125 1691.505 A9.675 9.675 0 0 1 1456.45 1701.18 L1443.55 1701.18 A9.675 9.675 0 0 1 1433.875 1691.505 L1433.875 1620.555 A9.675 9.675 0 0 1 1443.55 1610.88 Z M1485.475 1585.08 L1498.375 1585.08 A9.675 9.675 0 0 1 1508.05 1594.755 L1508.05 1691.505 A9.675 9.675 0 0 1 1498.375 1701.18 L1485.475 1701.18 A9.675 9.675 0 0 1 1475.8 1691.505 L1475.8 1594.755 A9.675 9.675 0 0 1 1485.475 1585.08 Z"/>
  </g>
  <g id="Medium-L">
   <path d="M1698.625 1643.13 L1711.525 1643.13 A9.675 9.675 0 0 1 1721.2 1652.805 L1721.2 1691.505 A9.675 9.675 0 0 1 1711.525 1701.18 L1698.625 1701.18 A9.675 9.675 0 0 1 1688.95 1691.505 L1688.95 1652.805 A9.675 9.675 0 0 1 1698.625 1643.13 Z M1740.55 1610.88 L1753.45 1610.88 A9.675 9.675 0 0 1 1763.125 1620.555 L1763.125 1691.505 A9.675 9.675 0 0 1 1753.45 1701.18 L1740.55 1701.18 A9.675 9.675 0 0 1 1730.875 1691.505 L1730.875 1620.555 A9.675 9.675 0 0 1 1740.55 1610.88 Z M1782.475 1585.08 L1795.375 1585.08 A9.675 9.675 0 0 1 1805.05 1594.755 L1805.05 1691.505 A9.675 9.675 0 0 1 1795.375 1701.18 L1782.475 1701.18 A9.675 9.675 0 0 1 1772.8 1691.505 L1772.8 1594.755 A9.675 9.675 0 0 1 1782.475 1585.08 Z"/>
  </g>
  <g id="Semibold-L">
   <path d="M1995.625 1643.13 L2008.525 1643.13 A9.675 9.675 0 0 1 2018.2 1652.805 L2018.2 1691.505 A9.675 9.675 0 0 1 2008.525 1701.18 L1995.625 1701.18 A9.675 9.675 0 0 1 1985.95 1691.505 L1985.95 1652.805 A9.675 9.675 0 0 1 1995.625 1643.13 Z M2037.55 1610.88 L2050.45 1610.88 A9.675 9.675 0 0 1 2060.125 1620.555 L2060.125 1691.505 A9.675 9.675 0 0 1 2050.45 1701.18 L2037.55 1701.18 A9.675 9.675 0 0 1 2027.875 1691.505 L2027.875 1620.555 A9.675 9.675 0 0 1 2037.55 1610.88 Z M2079.475 1585.08 L2092.375 1585.08 A9.675 9.675 0 0 1 2102.05 1594.755 L2102.05 1691.505 A9.675 9.675 0 0 1 2092.375 1701.18 L2079.475 1701.18 A9.675 9.675 0 0 1 2069.8 1691.505 L2069.8 1594.755 A9.675 9.675 0 0 1 2079.475 1585.08 Z"/>
  </g>
  <g id="Bold-L">
   <path d="M2292.625 1643.13 L2305.525 1643.13 A9.675 9.675 0 0 1 2315.2 1652.805 L2315.2 1691.505 A9.675 9.675 0 0 1 2305.525 1701.18 L2292.625 1701.18 A9.675 9.675 0 0 1 2282.95 1691.505 L2282.95 1652.805 A9.675 9.675 0 0 1 2292.625 1643.13 Z M2334.55 1610.88 L2347.45 1610.88 A9.675 9.675 0 0 1 2357.125 1620.555 L2357.125 1691.505 A9.675 9.675 0 0 1 2347.45 1701.18 L2334.55 1701.18 A9.675 9.675 0 0 1 2324.875 1691.505 L2324.875 1620.555 A9.675 9.675 0 0 1 2334.55 1610.88 Z M2376.475 1585.08 L2389.375 1585.08 A9.675 9.675 0 0 1 2399.05 1594.755 L2399.05 1691.505 A9.675 9.675 0 0 1 2389.375 1701.18 L2376.475 1701.18 A9.675 9.675 0 0 1 2366.8 1691.505 L2366.8 1594.755 A9.675 9.675 0 0 1 2376.475 1585.08 Z"/>
  </g>
  <g id="Heavy-L">
   <path d="M2589.625 1643.13 L2602.525 1643.13 A9.675 9.675 0 0 1 2612.2 1652.805 L2612.2 1691.505 A9.675 9.675 0 0 1 2602.525 1701.18 L2589.625 1701.18 A9.675 9.675 0 0 1 2579.95 1691.505 L2579.95 1652.805 A9.675 9.675 0 0 1 2589.625 1643.13 Z M2631.55 1610.88 L2644.45 1610.88 A9.675 9.675 0 0 1 2654.125 1620.555 L2654.125 1691.505 A9.675 9.675 0 0 1 2644.45 1701.18 L2631.55 1701.18 A9.675 9.675 0 0 1 2621.875 1691.505 L2621.875 1620.555 A9.675 9.675 0 0 1 2631.55 1610.88 Z M2673.475 1585.08 L2686.375 1585.08 A9.675 9.675 0 0 1 2696.05 1594.755 L2696.05 1691.505 A9.675 9.675 0 0 1 2686.375 1701.18 L2673.475 1701.18 A9.675 9.675 0 0 1 2663.8 1691.505 L2663.8 1594.755 A9.675 9.675 0 0 1 2673.475 1585.08 Z"/>
  </g>
  <g id="Black-L">
   <path d="M2886.625 1643.13 L2899.525 1643.13 A9.675 9.675 0 0 1 2909.2 1652.805 L2909.2 1691.505 A9.675 9.675 0 0 1 2899.525 1701.18 L2886.625 1701.18 A9.675 9.675 0 0 1 2876.95 1691.505 L2876.95 1652.805 A9.675 9.675 0 0 1 2886.625 1643.13 Z M2928.55 1610.88 L2941.45 1610.88 A9.675 9.675 0 0 1 2951.125 1620.555 L2951.125 1691.505 A9.675 9.675 0 0 1 2941.45 1701.18 L2928.55 1701.18 A9.675 9.675 0 0 1 2918.875 1691.505 L2918.875 1620.555 A9.675 9.675 0 0 1 2928.55 1610.88 Z M2970.475 1585.08 L2983.375 1585.08 A9.675 9.675 0 0 1 2993.05 1594.755 L2993.05 1691.505 A9.675 9.675 0 0 1 2983.375 1701.18 L2970.475 1701.18 A9.675 9.675 0 0 1 2960.8 1691.505 L2960.8 1594.755 A9.675 9.675 0 0 1 2970.475 1585.08 Z"/>
  </g>
  <g id="Ultralight-M">
   <path d="M521.5 1161.85 L531.5 1161.85 A7.5 7.5 0 0 1 539 1169.35 L539 1199.35 A7.5 7.5 0 0 1 531.5 1206.85 L521.5 1206.85 A7.5 7.5 0 0 1 514 1199.35 L514 1169.35 A7.5 7.5 0 0 1 521.5 1161.85 Z M554 1136.85 L564 1136.85 A7.5 7.5 0 0 1 571.5 1144.35 L571.5 1199.35 A7.5 7.5 0 0 1 564 1206.85 L554 1206.85 A7.5 7.5 0 0 1 546.5 1199.35 L546.5 1144.35 A7.5 7.5 0 0 1 554 1136.85 Z M586.5 1116.85 L596.5 1116.85 A7.5 7.5 0 0 1 604 1124.35 L604 1199.35 A7.5 7.5 0 0 1 596.5 1206.85 L586.5 1206.85 A7.5 7.5 0 0 1 579 1199.35 L579 1124.35 A7.5 7.5 0 0 1 586.5 1116.85 Z"/>
  </g>
  <g id="Thin-M">
   <path d="M818.5 1161.85 L828.5 1161.85 A7.5 7.5 0 0 1 836 1169.35 L836 1199.35 A7.5 7.5 0 0 1 828.5 1206.85 L818.5 1206.85 A7.5 7.5 0 0 1 811 1199.35 L811 1169.35 A7.5 7.5 0 0 1 818.5 1161.85 Z M851 1136.85 L861 1136.85 A7.5 7.5 0 0 1 868.5 1144.35 L868.5 1199.35 A7.5 7.5 0 0 1 861 1206.85 L851 1206.85 A7.5 7.5 0 0 1 843.5 1199.35 L843.5 1144.35 A7.5 7.5 0 0 1 851 1136.85 Z M883.5 1116.85 L893.5 1116.85 A7.5 7.5 0 0 1 901 1124.35 L901 1199.35 A7.5 7.5 0 0 1 893.5 1206.85 L883.5 1206.85 A7.5 7.5 0 0 1 876 1199.35 L876 1124.35 A7.5 7.5 0 0 1 883.5 1116.85 Z"/>
  </g>
  <g id="Light-M">
   <path d="M1115.5 1161.85 L1125.5 1161.85 A7.5 7.5 0 0 1 1133 1169.35 L1133 1199.35 A7.5 7.5 0 0 1 1125.5 1206.85 L1115.5 1206.85 A7.5 7.5 0 0 1 1108 1199.35 L1108 1169.35 A7.5 7.5 0 0 1 1115.5 1161.85 Z M1148 1136.85 L1158 1136.85 A7.5 7.5 0 0 1 1165.5 1144.35 L1165.5 1199.35 A7.5 7.5 0 0 1 1158 1206.85 L1148 1206.85 A7.5 7.5 0 0 1 1140.5 1199.35 L1140.5 1144.35 A7.5 7.5 0 0 1 1148 1136.85 Z M1180.5 1116.85 L1190.5 1116.85 A7.5 7.5 0 0 1 1198 1124.35 L1198 1199.35 A7.5 7.5 0 0 1 1190.5 1206.85 L1180.5 1206.85 A7.5 7.5 0 0 1 1173 1199.35 L1173 1124.35 A7.5 7.5 0 0 1 1180.5 1116.85 Z"/>
  </g>
  <g id="Regular-M">
   <path d="M1412.5 1161.85 L1422.5 1161.85 A7.5 7.5 0 0 1 1430 1169.35 L1430 1199.35 A7.5 7.5 0 0 1 1422.5 1206.85 L1412.5 1206.85 A7.5 7.5 0 0 1 1405 1199.35 L1405 1169.35 A7.5 7.5 0 0 1 1412.5 1161.85 Z M1445 1136.85 L1455 1136.85 A7.5 7.5 0 0 1 1462.5 1144.35 L1462.5 1199.35 A7.5 7.5 0 0 1 1455 1206.85 L1445 1206.85 A7.5 7.5 0 0 1 1437.5 1199.35 L1437.5 1144.35 A7.5 7.5 0 0 1 1445 1136.85 Z M1477.5 1116.85 L1487.5 1116.85 A7.5 7.5 0 0 1 1495 1124.35 L1495 1199.35 A7.5 7.5 0 0 1 1487.5 1206.85 L1477.5 1206.85 A7.5 7.5 0 0 1 1470 1199.35 L1470 1124.35 A7.5 7.5 0 0 1 1477.5 1116.85 Z"/>
  </g>
  <g id="Medium-M">
   <path d="M1709.5 1161.85 L1719.5 1161.85 A7.5 7.5 0 0 1 1727 1169.35 L1727 1199.35 A7.5 7.5 0 0 1 1719.5 1206.85 L1709.5 1206.85 A7.5 7.5 0 0 1 1702 1199.35 L1702 1169.35 A7.5 7.5 0 0 1 1709.5 1161.85 Z M1742 1136.85 L1752 1136.85 A7.5 7.5 0 0 1 1759.5 1144.35 L1759.5 1199.35 A7.5 7.5 0 0 1 1752 1206.85 L1742 1206.85 A7.5 7.5 0 0 1 1734.5 1199.35 L1734.5 1144.35 A7.5 7.5 0 0 1 1742 1136.85 Z M1774.5 1116.85 L1784.5 1116.85 A7.5 7.5 0 0 1 1792 1124.35 L1792 1199.35 A7.5 7.5 0 0 1 1784.5 1206.85 L1774.5 1206.85 A7.5 7.5 0 0 1 1767 1199.35 L1767 1124.35 A7.5 7.5 0 0 1 1774.5 1116.85 Z"/>
  </g>
  <g id="Semibold-M">
   <path d="M2006.5 1161.85 L2016.5 1161.85 A7.5 7.5 0 0 1 2024 1169.35 L2024 1199.35 A7.5 7.5 0 0 1 2016.5 1206.85 L2006.5 1206.85 A7.5 7.5 0 0 1 1999 1199.35 L1999 1169.35 A7.5 7.5 0 0 1 2006.5 1161.85 Z M2039 1136.85 L2049 1136.85 A7.5 7.5 0 0 1 2056.5 1144.35 L2056.5 1199.35 A7.5 7.5 0 0 1 2049 1206.85 L2039 1206.85 A7.5 7.5 0 0 1 2031.5 1199.35 L2031.5 1144.35 A7.5 7.5 0 0 1 2039 1136.85 Z M2071.5 1116.85 L2081.5 1116.85 A7.5 7.5 0 0 1 2089 1124.35 L2089 1199.35 A7.5 7.5 0 0 1 2081.5 1206.85 L2071.5 1206.85 A7.5 7.5 0 0 1 2064 1199.35 L2064 1124.35 A7.5 7.5 0 0 1 2071.5 1116.85 Z"/>
  </g>
  <g id="Bold-M">
   <path d="M2303.5 1161.85 L2313.5 1161.85 A7.5 7.5 0 0 1 2321 1169.35 L2321 1199.35 A7.5 7.5 0 0 1 2313.5 1206.85 L2303.5 1206.85 A7.5 7.5 0 0 1 2296 1199.35 L2296 1169.35 A7.5 7.5 0 0 1 2303.5 1161.85 Z M2336 1136.85 L2346 1136.85 A7.5 7.5 0 0 1 2353.5 1144.35 L2353.5 1199.35 A7.5 7.5 0 0 1 2346 1206.85 L2336 1206.85 A7.5 7.5 0 0 1 2328.5 1199.35 L2328.5 1144.35 A7.5 7.5 0 0 1 2336 1136.85 Z M2368.5 1116.85 L2378.5 1116.85 A7.5 7.5 0 0 1 2386 1124.35 L2386 1199.35 A7.5 7.5 0 0 1 2378.5 1206.85 L2368.5 1206.85 A7.5 7.5 0 0 1 2361 1199.35 L2361 1124.35 A7.5 7.5 0 0 1 2368.5 1116.85 Z"/>
  </g>
  <g id="Heavy-M">
   <path d="M2600.5 1161.85 L2610.5 1161.85 A7.5 7.5 0 0 1 2618 1169.35 L2618 1199.35 A7.5 7.5 0 0 1 2610.5 1206.85 L2600.5 1206.85 A7.5 7.5 0 0 1 2593 1199.35 L2593 1169.35 A7.5 7.5 0 0 1 2600.5 1161.85 Z M2633 1136.85 L2643 1136.85 A7.5 7.5 0 0 1 2650.5 1144.35 L2650.5 1199.35 A7.5 7.5 0 0 1 2643 1206.85 L2633 1206.85 A7.5 7.5 0 0 1 2625.5 1199.35 L2625.5 1144.35 A7.5 7.5 0 0 1 2633 1136.85 Z M2665.5 1116.85 L2675.5 1116.85 A7.5 7.5 0 0 1 2683 1124.35 L2683 1199.35 A7.5 7.5 0 0 1 2675.5 1206.85 L2665.5 1206.85 A7.5 7.5 0 0 1 2658 1199.35 L2658 1124.35 A7.5 7.5 0 0 1 2665.5 1116.85 Z"/>
  </g>
  <g id="Black-M">
   <path d="M2897.5 1161.85 L2907.5 1161.85 A7.5 7.5 0 0 1 2915 1169.35 L2915 1199.35 A7.5 7.5 0 0 1 2907.5 1206.85 L2897.5 1206.85 A7.5 7.5 0 0 1 2890 1199.35 L2890 1169.35 A7.5 7.5 0 0 1 2897.5 1161.85 Z M2930 1136.85 L2940 1136.85 A7.5 7.5 0 0 1 2947.5 1144.35 L2947.5 1199.35 A7.5 7.5 0 0 1 2940 1206.85 L2930 1206.85 A7.5 7.5 0 0 1 2922.5 1199.35 L2922.5 1144.35 A7.5 7.5 0 0 1 2930 1136.85 Z M2962.5 1116.85 L2972.5 1116.85 A7.5 7.5 0 0 1 2980 1124.35 L2980 1199.35 A7.5 7.5 0 0 1 2972.5 1206.85 L2962.5 1206.85 A7.5 7.5 0 0 1 2955 1199.35 L2955 1124.35 A7.5 7.5 0 0 1 2962.5 1116.85 Z"/>
  </g>
  <g id="Ultralight-S">
   <path d="M529.637 661.135 L537.467 661.135 A5.873 5.873 0 0 1 543.34 667.007 L543.34 690.497 A5.873 5.873 0 0 1 537.467 696.37 L529.637 696.37 A5.873 5.873 0 0 1 523.765 690.497 L523.765 667.007 A5.873 5.873 0 0 1 529.637 661.135 Z M555.085 641.56 L562.915 641.56 A5.873 5.873 0 0 1 568.788 647.433 L568.788 690.497 A5.873 5.873 0 0 1 562.915 696.37 L555.085 696.37 A5.873 5.873 0 0 1 549.212 690.497 L549.212 647.433 A5.873 5.873 0 0 1 555.085 641.56 Z M580.533 625.9 L588.362 625.9 A5.873 5.873 0 0 1 594.235 631.772 L594.235 690.497 A5.873 5.873 0 0 1 588.362 696.37 L580.533 696.37 A5.873 5.873 0 0 1 574.66 690.497 L574.66 631.772 A5.873 5.873 0 0 1 580.533 625.9 Z"/>
  </g>
  <g id="Thin-S">
   <path d="M826.637 661.135 L834.467 661.135 A5.873 5.873 0 0 1 840.34 667.007 L840.34 690.497 A5.873 5.873 0 0 1 834.467 696.37 L826.637 696.37 A5.873 5.873 0 0 1 820.765 690.497 L820.765 667.007 A5.873 5.873 0 0 1 826.637 661.135 Z M852.085 641.56 L859.915 641.56 A5.873 5.873 0 0 1 865.788 647.433 L865.788 690.497 A5.873 5.873 0 0 1 859.915 696.37 L852.085 696.37 A5.873 5.873 0 0 1 846.212 690.497 L846.212 647.433 A5.873 5.873 0 0 1 852.085 641.56 Z M877.533 625.9 L885.362 625.9 A5.873 5.873 0 0 1 891.235 631.772 L891.235 690.497 A5.873 5.873 0 0 1 885.362 696.37 L877.533 696.37 A5.873 5.873 0 0 1 871.66 690.497 L871.66 631.772 A5.873 5.873 0 0 1 877.533 625.9 Z"/>
  </g>
  <g id="Light-S">
   <path d="M1123.638 661.135 L1131.467 661.135 A5.873 5.873 0 0 1 1137.34 667.007 L1137.34 690.497 A5.873 5.873 0 0 1 1131.467 696.37 L1123.638 696.37 A5.873 5.873 0 0 1 1117.765 690.497 L1117.765 667.007 A5.873 5.873 0 0 1 1123.638 661.135 Z M1149.085 641.56 L1156.915 641.56 A5.873 5.873 0 0 1 1162.787 647.433 L1162.787 690.497 A5.873 5.873 0 0 1 1156.915 696.37 L1149.085 696.37 A5.873 5.873 0 0 1 1143.213 690.497 L1143.213 647.433 A5.873 5.873 0 0 1 1149.085 641.56 Z M1174.533 625.9 L1182.362 625.9 A5.873 5.873 0 0 1 1188.235 631.772 L1188.235 690.497 A5.873 5.873 0 0 1 1182.362 696.37 L1174.533 696.37 A5.873 5.873 0 0 1 1168.66 690.497 L1168.66 631.772 A5.873 5.873 0 0 1 1174.533 625.9 Z"/>
  </g>
  <g id="Regular-S">
   <path d="M1420.638 661.135 L1428.467 661.135 A5.873 5.873 0 0 1 1434.34 667.007 L1434.34 690.497 A5.873 5.873 0 0 1 1428.467 696.37 L1420.638 696.37 A5.873 5.873 0 0 1 1414.765 690.497 L1414.765 667.007 A5.873 5.873 0 0 1 1420.638 661.135 Z M1446.085 641.56 L1453.915 641.56 A5.873 5.873 0 0 1 1459.787 647.433 L1459.787 690.497 A5.873 5.873 0 0 1 1453.915 696.37 L1446.085 696.37 A5.873 5.873 0 0 1 1440.213 690.497 L1440.213 647.433 A5.873 5.873 0 0 1 1446.085 641.56 Z M1471.533 625.9 L1479.362 625.9 A5.873 5.873 0 0 1 1485.235 631.772 L1485.235 690.497 A5.873 5.873 0 0 1 1479.362 696.37 L1471.533 696.37 A5.873 5.873 0 0 1 1465.66 690.497 L1465.66 631.772 A5.873 5.873 0 0 1 1471.533 625.9 Z"/>
  </g>
  <g id="Medium-S">
   <path d="M1717.638 661.135 L1725.467 661.135 A5.873 5.873 0 0 1 1731.34 667.007 L1731.34 690.497 A5.873 5.873 0 0 1 1725.467 696.37 L1717.638 696.37 A5.873 5.873 0 0 1 1711.765 690.497 L1711.765 667.007 A5.873 5.873 0 0 1 1717.638 661.135 Z M1743.085 641.56 L1750.915 641.56 A5.873 5.873 0 0 1 1756.787 647.433 L1756.787 690.497 A5.873 5.873 0 0 1 1750.915 696.37 L1743.085 696.37 A5.873 5.873 0 0 1 1737.213 690.497 L1737.213 647.433 A5.873 5.873 0 0 1 1743.085 641.56 Z M1768.533 625.9 L1776.362 625.9 A5.873 5.873 0 0 1 1782.235 631.772 L1782.235 690.497 A5.873 5.873 0 0 1 1776.362 696.37 L1768.533 696.37 A5.873 5.873 0 0 1 1762.66 690.497 L1762.66 631.772 A5.873 5.873 0 0 1 1768.533 625.9 Z"/>
  </g>
  <g id="Semibold-S">
   <path d="M2014.638 661.135 L2022.467 661.135 A5.873 5.873 0 0 1 2028.34 667.007 L2028.34 690.497 A5.873 5.873 0 0 1 2022.467 696.37 L2014.638 696.37 A5.873 5.873 0 0 1 2008.765 690.497 L2008.765 667.007 A5.873 5.873 0 0 1 2014.638 661.135 Z M2040.085 641.56 L2047.915 641.56 A5.873 5.873 0 0 1 2053.787 647.433 L2053.787 690.497 A5.873 5.873 0 0 1 2047.915 696.37 L2040.085 696.37 A5.873 5.873 0 0 1 2034.213 690.497 L2034.213 647.433 A5.873 5.873 0 0 1 2040.085 641.56 Z M2065.532 625.9 L2073.363 625.9 A5.873 5.873 0 0 1 2079.235 631.772 L2079.235 690.497 A5.873 5.873 0 0 1 2073.363 696.37 L2065.532 696.37 A5.873 5.873 0 0 1 2059.66 690.497 L2059.66 631.772 A5.873 5.873 0 0 1 2065.532 625.9 Z"/>
  </g>
  <g id="Bold-S">
   <path d="M2311.637 661.135 L2319.468 661.135 A5.873 5.873 0 0 1 2325.34 667.007 L2325.34 690.497 A5.873 5.873 0 0 1 2319.468 696.37 L2311.637 696.37 A5.873 5.873 0 0 1 2305.765 690.497 L2305.765 667.007 A5.873 5.873 0 0 1 2311.637 661.135 Z M2337.085 641.56 L2344.915 641.56 A5.873 5.873 0 0 1 2350.787 647.433 L2350.787 690.497 A5.873 5.873 0 0 1 2344.915 696.37 L2337.085 696.37 A5.873 5.873 0 0 1 2331.213 690.497 L2331.213 647.433 A5.873 5.873 0 0 1 2337.085 641.56 Z M2362.532 625.9 L2370.363 625.9 A5.873 5.873 0 0 1 2376.235 631.772 L2376.235 690.497 A5.873 5.873 0 0 1 2370.363 696.37 L2362.532 696.37 A5.873 5.873 0 0 1 2356.66 690.497 L2356.66 631.772 A5.873 5.873 0 0 1 2362.532 625.9 Z"/>
  </g>
  <g id="Heavy-S">
   <path d="M2608.637 661.135 L2616.468 661.135 A5.873 5.873 0 0 1 2622.34 667.007 L2622.34 690.497 A5.873 5.873 0 0 1 2616.468 696.37 L2608.637 696.37 A5.873 5.873 0 0 1 2602.765 690.497 L2602.765 667.007 A5.873 5.873 0 0 1 2608.637 661.135 Z M2634.085 641.56 L2641.915 641.56 A5.873 5.873 0 0 1 2647.787 647.433 L2647.787 690.497 A5.873 5.873 0 0 1 2641.915 696.37 L2634.085 696.37 A5.873 5.873 0 0 1 2628.213 690.497 L2628.213 647.433 A5.873 5.873 0 0 1 2634.085 641.56 Z M2659.532 625.9 L2667.363 625.9 A5.873 5.873 0 0 1 2673.235 631.772 L2673.235 690.497 A5.873 5.873 0 0 1 2667.363 696.37 L2659.532 696.37 A5.873 5.873 0 0 1 2653.66 690.497 L2653.66 631.772 A5.873 5.873 0 0 1 2659.532 625.9 Z"/>
  </g>
  <g id="Black-S">
   <path d="M2905.637 661.135 L2913.468 661.135 A5.873 5.873 0 0 1 2919.34 667.007 L2919.34 690.497 A5.873 5.873 0 0 1 2913.468 696.37 L2905.637 696.37 A5.873 5.873 0 0 1 2899.765 690.497 L2899.765 667.007 A5.873 5.873 0 0 1 2905.637 661.135 Z M2931.085 641.56 L2938.915 641.56 A5.873 5.873 0 0 1 2944.787 647.433 L2944.787 690.497 A5.873 5.873 0 0 1 2938.915 696.37 L2931.085 696.37 A5.873 5.873 0 0 1 2925.213 690.497 L2925.213 647.433 A5.873 5.873 0 0 1 2931.085 641.56 Z M2956.532 625.9 L2964.363 625.9 A5.873 5.873 0 0 1 2970.235 631.772 L2970.235 690.497 A5.873 5.873 0 0 1 2964.363 696.37 L2956.532 696.37 A5.873 5.873 0 0 1 2950.66 690.497 L2950.66 631.772 A5.873 5.873 0 0 1 2956.532 625.9 Z"/>
  </g>
 </g>
</svg>
